# Blender v2.78 (sub 0) OBJ File: ''
# www.blender.org
mtllib normalizedCube.mtl
o object
v -1.000000 -1.000000 1.000000
v -1.000000 1.000000 -1.000000
v -1.000000 -1.000000 -1.000000
v -1.000000 1.000000 1.000000
v 1.000000 1.000000 -1.000000
v 1.000000 -1.000000 -1.000000
v 1.000000 1.000000 1.000000
v 1.000000 -1.000000 1.000000
vt 0.3333 0.6667
vt 0.6667 0.3333
vt 0.6667 0.6667
vt 0.3333 0.3333
vt 1.0000 0.0000
vt 0.6667 0.3333
vt 0.6667 0.0000
vt 1.0000 0.3333
vt 0.3333 0.0000
vt 0.0000 0.3333
vt 0.0000 0.0000
vt 0.3333 0.3333
vt 0.0000 0.6667
vt 0.3333 1.0000
vt 0.0000 1.0000
vt 0.3333 0.6667
vt 0.6667 0.3333
vt 0.3333 0.0000
vt 0.6667 0.0000
vt 0.3333 0.3333
vt 0.0000 0.6667
vt 0.3333 0.6667
vn -1.0000 0.0000 0.0000
vn 0.0000 0.0000 -1.0000
vn 1.0000 0.0000 0.0000
vn 0.0000 -0.0000 1.0000
vn 0.0000 -1.0000 -0.0000
vn 0.0000 1.0000 0.0000
usemtl color
s 1
f 1/1/1 2/2/1 3/3/1
f 1/1/1 4/4/1 2/2/1
f 3/5/2 5/6/2 6/7/2
f 3/5/2 2/8/2 5/6/2
f 6/9/3 7/10/3 8/11/3
f 6/9/3 5/12/3 7/10/3
f 8/13/4 4/14/4 1/15/4
f 8/13/4 7/16/4 4/14/4
f 3/17/5 8/18/5 1/19/5
f 3/17/5 6/20/5 8/18/5
f 5/12/6 4/21/6 7/10/6
f 5/12/6 2/22/6 4/21/6
